<svg width="360" height="52" viewBox="0 0 360 52" fill="none" xmlns="http://www.w3.org/2000/svg">
<path d="M36.2621 11.7273V51H29.0902L12.0043 26.282H11.7166V51H3.41335V11.7273H10.7003L27.652 36.4261H27.9972V11.7273H36.2621ZM138.394 11.7273L146.314 25.1122H146.621L154.579 11.7273H163.956L151.971 31.3636L164.224 51H154.675L146.621 37.5959H146.314L138.26 51H128.749L141.04 31.3636L128.979 11.7273H138.394ZM175.979 51H167.082L180.639 11.7273H191.339L204.878 51H195.98L186.143 20.7017H185.836L175.979 51ZM175.423 35.5632H196.44V42.0447H175.423V35.5632ZM232.154 51.4C230.887 51.4 229.554 51.3 228.154 51.1C226.754 50.9 225.621 50.6333 224.754 50.3C223.354 49.7333 222.654 48.7833 222.654 47.45C222.654 46.4833 222.937 45.7167 223.504 45.15C224.104 44.55 225.037 44.25 226.304 44.25C227.171 44.25 228.221 44.3667 229.454 44.6C230.687 44.8333 231.771 44.95 232.704 44.95C234.771 44.95 236.254 44.6833 237.154 44.15C238.054 43.6167 238.504 42.5333 238.504 40.9C238.504 39.9333 238.154 39.1167 237.454 38.45C236.787 37.7833 235.437 37.15 233.404 36.55C229.704 35.45 227.021 34.0833 225.354 32.45C223.721 30.8167 222.904 28.7 222.904 26.1C222.904 23.8333 223.404 21.9167 224.404 20.35C225.437 18.75 226.854 17.5333 228.654 16.7C230.454 15.8667 232.504 15.45 234.804 15.45C237.504 15.45 239.737 15.8167 241.504 16.55C242.904 17.0833 243.604 18.0333 243.604 19.4C243.604 20.3667 243.304 21.15 242.704 21.75C242.137 22.3167 241.221 22.6 239.954 22.6C239.121 22.6 238.221 22.5167 237.254 22.35C236.287 22.15 235.337 22.05 234.404 22.05C232.971 22.05 231.887 22.3 231.154 22.8C230.421 23.3 230.054 24.1333 230.054 25.3C230.054 26.3667 230.571 27.3333 231.604 28.2C232.637 29.0667 234.537 29.9167 237.304 30.75C240.471 31.6833 242.654 32.95 243.854 34.55C245.054 36.1167 245.654 38.1167 245.654 40.55C245.654 44.0833 244.471 46.7833 242.104 48.65C239.771 50.4833 236.454 51.4 232.154 51.4ZM259.935 51.4C259.102 51.4 258.252 51.2167 257.385 50.85C256.552 50.45 256.135 49.8167 256.135 48.95V25.55C256.135 24.4833 256.402 23.75 256.935 23.35C257.468 22.95 257.902 22.7 258.235 22.6H248.585C247.785 22.6 247.185 22.25 246.785 21.55C246.418 20.8167 246.235 20.0667 246.235 19.3C246.235 18.4667 246.435 17.7167 246.835 17.05C247.235 16.35 247.818 16 248.585 16H270.935C271.702 16 272.285 16.35 272.685 17.05C273.085 17.7167 273.285 18.4667 273.285 19.3C273.285 20.0667 273.085 20.8167 272.685 21.55C272.318 22.25 271.735 22.6 270.935 22.6H263.335V48.95C263.335 49.7833 262.985 50.4 262.285 50.8C261.618 51.2 260.835 51.4 259.935 51.4ZM287.182 51.4C284.282 51.4 281.815 50.8333 279.782 49.7C277.748 48.5333 276.198 46.6333 275.132 44C274.098 41.3667 273.582 37.8 273.582 33.3C273.582 28.8 274.098 25.25 275.132 22.65C276.198 20.05 277.748 18.2 279.782 17.1C281.815 16 284.282 15.45 287.182 15.45C290.115 15.45 292.582 16 294.582 17.1C296.615 18.2 298.148 20.05 299.182 22.65C300.248 25.25 300.782 28.8 300.782 33.3C300.782 37.8 300.248 41.3667 299.182 44C298.148 46.6333 296.615 48.5333 294.582 49.7C292.582 50.8333 290.115 51.4 287.182 51.4ZM287.182 44.8C288.515 44.8 289.648 44.4833 290.582 43.85C291.548 43.2167 292.282 42.0667 292.782 40.4C293.315 38.7333 293.582 36.3667 293.582 33.3C293.582 30.2 293.315 27.85 292.782 26.25C292.282 24.6167 291.548 23.5167 290.582 22.95C289.648 22.35 288.515 22.05 287.182 22.05C285.882 22.05 284.748 22.35 283.782 22.95C282.815 23.5167 282.065 24.6167 281.532 26.25C281.032 27.85 280.782 30.2 280.782 33.3C280.782 36.3667 281.032 38.7333 281.532 40.4C282.065 42.0667 282.815 43.2167 283.782 43.85C284.748 44.4833 285.882 44.8 287.182 44.8ZM310.214 51.3C309.081 51.3 308.181 51.05 307.514 50.55C306.847 50.0167 306.514 49.2667 306.514 48.3V26.7C306.514 22.8333 307.531 20 309.564 18.2C311.631 16.3667 314.847 15.45 319.214 15.45C322.781 15.45 325.497 16.35 327.364 18.15C329.264 19.9167 330.214 22.4833 330.214 25.85C330.214 27.0167 330.181 28.15 330.114 29.25C330.047 30.3167 329.947 31.0667 329.814 31.5C329.314 33.3333 328.397 34.7333 327.064 35.7C328.864 37.2 329.764 38.9333 329.764 40.9V48.3C329.764 50.3667 328.614 51.4 326.314 51.4C325.181 51.4 324.281 51.15 323.614 50.65C322.947 50.1167 322.614 49.3333 322.614 48.3V41.7C322.614 39.9 322.331 38.6333 321.764 37.9C321.231 37.1667 320.131 36.8 318.464 36.8C316.664 36.8 315.414 37.2 314.714 38C314.047 38.7667 313.714 40.2 313.714 42.3V48.3C313.714 50.3 312.547 51.3 310.214 51.3ZM313.314 32.7C314.147 32 314.881 31.55 315.514 31.35C316.181 31.1167 317.131 31 318.364 31C320.031 31 321.247 30.9167 322.014 30.75C322.814 30.5833 323.331 30.2333 323.564 29.7C323.797 29.1667 323.914 28.3333 323.914 27.2C323.914 24.9333 323.564 23.3667 322.864 22.5C322.197 21.6 320.981 21.15 319.214 21.15C317.247 21.15 315.847 21.6 315.014 22.5C314.214 23.4 313.814 24.9667 313.814 27.2C313.814 28.3 313.764 29.2833 313.664 30.15C313.597 30.9833 313.481 31.8333 313.314 32.7ZM338.555 51C337.922 51 337.388 50.75 336.955 50.25C336.522 49.75 336.305 49.1167 336.305 48.35V24.95C336.305 21.8167 337.272 19.55 339.205 18.15C341.138 16.7167 344.255 16 348.555 16H354.805C355.905 16 356.755 16.3 357.355 16.9C357.988 17.4667 358.305 18.2833 358.305 19.35C358.305 20.3833 357.988 21.1833 357.355 21.75C356.755 22.3167 355.905 22.6 354.805 22.6H348.205C346.538 22.6 345.338 22.9333 344.605 23.6C343.872 24.2667 343.505 25.35 343.505 26.85C343.505 27.3833 343.472 28.05 343.405 28.85C343.338 29.6167 343.238 30.5 343.105 31.5C343.672 31.0333 344.388 30.6667 345.255 30.4C346.122 30.1 346.972 29.95 347.805 29.95H352.755C353.688 29.95 354.405 30.2333 354.905 30.8C355.438 31.3667 355.705 32.15 355.705 33.15C355.705 34.15 355.438 34.95 354.905 35.55C354.372 36.15 353.655 36.45 352.755 36.45H347.405C345.872 36.45 344.838 36.7667 344.305 37.4C343.772 38 343.505 39.2333 343.505 41.1V44.4H354.805C356.038 44.4 356.922 44.6667 357.455 45.2C358.022 45.7333 358.305 46.6 358.305 47.8C358.305 48.9333 358.038 49.75 357.505 50.25C356.972 50.75 356.072 51 354.805 51H338.555Z" fill="#1F1513"/>
</svg>
